<svg width="2025" height="2263" viewBox="0 0 2025 2263" fill="none" xmlns="http://www.w3.org/2000/svg">
<path d="M253.6 52.8L264.4 67.2C270.4 75.3 279.9 80 290 80H322C332.1 80 341.6 75.3 347.6 67.2L358.4 52.8C360.7 49.8 364.2 48 368 48C373.8 48 378.8 52.1 379.8 57.8L398.8 159.2L470.6 125C486.8 117.3 506.1 121.4 517.7 135C566.9 192.4 594 265.6 594 341.2V378.8C594 388.5 583.8 394.8 575.1 390.5L511.3 358.6C503.8 354.9 494.7 357.5 490.4 364.7L460.6 414.4C455.2 423.3 442.9 424.8 435.6 417.5L399 380.9C392.2 374.1 380.9 374.8 375 382.5L318.8 455.6C312.4 463.9 299.8 463.9 293.4 455.6L237.2 382.5C231.3 374.8 220 374.1 213.2 380.9L176.6 417.5C169.2 424.9 156.9 423.3 151.6 414.4L121.8 364.7C117.5 357.5 108.4 354.9 100.9 358.6L36.9 390.5C28.2 394.8 18 388.5 18 378.8V341.2C18 265.6 45.1 192.4 94.3 135C105.9 121.4 125.2 117.3 141.4 125L213.2 159.2L232.2 57.8C233.3 52.1 238.2 48 244 48C247.8 48 251.4 49.8 253.6 52.8Z" fill="black"/>
<g clip-path="url(#clip0_1_34)">
<path opacity="0.4" d="M745 674C745 780 813.1 866 897 866C916.3 866 934.8 861.5 951.7 853.2C960 849.1 969.9 849.1 978.2 853.2C995.2 861.5 1013.6 866 1032.9 866C1052.2 866 1070.7 861.5 1087.6 853.2C1095.9 849.1 1105.8 849.1 1114.1 853.2C1131.1 861.5 1149.5 866 1168.8 866C1252.7 866 1320.8 780 1320.8 674C1320.8 568 1252.7 482 1168.8 482C1159.9 482 1151.2 483 1142.8 484.8C1142.2 484.9 1141.6 485 1141 485.1C1153.1 493.9 1164.1 504.2 1173.7 515.6C1179.3 522.3 1170.8 530.2 1163.3 525.7C1125.3 503 1080.7 490 1033 490C985.3 490 940.7 503 902.5 525.7C895 530.2 886.5 522.3 892.1 515.6C901.7 504.2 912.7 493.9 924.8 485.1C924.2 485 923.6 484.9 923 484.8C914.5 483 905.8 482 897 482C813.1 482 745 568 745 674ZM850.4 694.4C850.4 694.2 850.4 693.9 850.4 694.4ZM906.9 633.5C904.1 628.3 904.4 622 907.7 617.1L939.7 569.1C942.7 564.6 947.7 562 953 562C958.3 562 963.3 564.7 966.3 569.1L998.3 617.1C1001.6 622 1001.9 628.3 999.1 633.5C996.3 638.7 990.9 642 985 642H921C915.1 642 909.7 638.8 906.9 633.5ZM1066.9 633.5C1064.1 628.3 1064.4 622 1067.7 617.1L1099.7 569.1C1102.7 564.6 1107.7 562 1113 562C1118.3 562 1123.3 564.7 1126.3 569.1L1158.3 617.1C1161.6 622 1161.9 628.3 1159.1 633.5C1156.3 638.7 1150.9 642 1145 642H1081C1075.1 642 1069.7 638.8 1066.9 633.5Z" fill="#FF7104"/>
<path d="M1020.5 364.4L979.6 457.9C996.5 452.8 1014.4 450 1033 450C1055.5 450 1077.1 454 1097 461.4V389.4C1097 382.5 1092.9 376.2 1086.5 373.5L1044.3 355.4C1042.1 354.5 1039.8 354 1037.5 354H1036.3C1029.4 354 1023.2 358.1 1020.5 364.4ZM966.3 569.1C963.3 564.6 958.3 562 953 562C947.7 562 942.7 564.7 939.7 569.1L907.7 617.1C904.4 622 904.1 628.3 906.9 633.5C909.7 638.7 915.1 642 921 642H985C990.9 642 996.3 638.8 999.1 633.5C1001.9 628.2 1001.6 622 998.3 617.1L966.3 569.1ZM1126.3 569.1C1123.3 564.6 1118.3 562 1113 562C1107.7 562 1102.7 564.7 1099.7 569.1L1067.7 617.1C1064.4 622 1064.1 628.3 1066.9 633.5C1069.7 638.7 1075.1 642 1081 642H1145C1150.9 642 1156.3 638.8 1159.1 633.5C1161.9 628.2 1161.6 622 1158.3 617.1L1126.3 569.1ZM1161 769.4C1197.9 744.7 1210.9 712.7 1215.1 698C1216.5 693 1214.8 687.8 1211.1 684.2C1205.3 678.4 1196 677.6 1188.9 681.8C1165.8 695.4 1110.6 722 1033 722V738C1033 746.8 1025.8 754 1017 754H1001C992.2 754 985 746.8 985 738V718.5C932.6 710.8 895.1 692.3 877.1 681.7C870 677.5 860.7 678.3 854.9 684.1C851.2 687.8 849.5 692.9 850.9 697.9C855.1 712.6 868.1 744.7 905 769.3C905.3 760.7 912.3 753.9 921 753.9H937C945.8 753.9 953 761.1 953 769.9V791.4C974.8 797.9 1001.2 801.9 1033 801.9C1064.8 801.9 1091.2 797.9 1113 791.4V769.9C1113 761.1 1120.2 753.9 1129 753.9H1145C1153.6 753.9 1160.7 760.8 1161 769.3V769.4Z" fill="#FF7104"/>
</g>
<g clip-path="url(#clip1_1_34)">
<path opacity="0.4" d="M192 1428H288H416H448H512H544H672H768V1460L640 1524H320L192 1460V1428Z" fill="#326F00"/>
<path d="M288 1428L416 1140L632 1012L736 1100L704 1204L672 1140H608L576 1204L672 1428H544V1348V1332H528H432H416V1348V1428H288ZM448 1428V1364H512V1428H448Z" fill="#18005A"/>
</g>
<g clip-path="url(#clip2_1_34)">
<path opacity="0.4" d="M821 1637V1925L869 1893L941 1957L1013 1893L1085 1957L1157 1893L1205 1925V1637C1205 1531 1119 1445 1013 1445C907 1445 821 1531 821 1637ZM981 1637C981 1645.49 977.629 1653.63 971.627 1659.63C965.626 1665.63 957.487 1669 949 1669C940.513 1669 932.374 1665.63 926.373 1659.63C920.371 1653.63 917 1645.49 917 1637C917 1628.51 920.371 1620.37 926.373 1614.37C932.374 1608.37 940.513 1605 949 1605C957.487 1605 965.626 1608.37 971.627 1614.37C977.629 1620.37 981 1628.51 981 1637ZM1109 1637C1109 1645.49 1105.63 1653.63 1099.63 1659.63C1093.63 1665.63 1085.49 1669 1077 1669C1068.51 1669 1060.37 1665.63 1054.37 1659.63C1048.37 1653.63 1045 1645.49 1045 1637C1045 1628.51 1048.37 1620.37 1054.37 1614.37C1060.37 1608.37 1068.51 1605 1077 1605C1085.49 1605 1093.63 1608.37 1099.63 1614.37C1105.63 1620.37 1109 1628.51 1109 1637Z" fill="white"/>
<path d="M949 1669C957.487 1669 965.626 1665.63 971.627 1659.63C977.629 1653.63 981 1645.49 981 1637C981 1628.51 977.629 1620.37 971.627 1614.37C965.626 1608.37 957.487 1605 949 1605C940.513 1605 932.374 1608.37 926.373 1614.37C920.371 1620.37 917 1628.51 917 1637C917 1645.49 920.371 1653.63 926.373 1659.63C932.374 1665.63 940.513 1669 949 1669ZM1077 1669C1085.49 1669 1093.63 1665.63 1099.63 1659.63C1105.63 1653.63 1109 1645.49 1109 1637C1109 1628.51 1105.63 1620.37 1099.63 1614.37C1093.63 1608.37 1085.49 1605 1077 1605C1068.51 1605 1060.37 1608.37 1054.37 1614.37C1048.37 1620.37 1045 1628.51 1045 1637C1045 1645.49 1048.37 1653.63 1054.37 1659.63C1060.37 1665.63 1068.51 1669 1077 1669Z" fill="white"/>
</g>
<path d="M1684.6 1093.8L1695.4 1108.2C1701.4 1116.3 1710.9 1121 1721 1121H1753C1763.1 1121 1772.6 1116.3 1778.6 1108.2L1789.4 1093.8C1791.7 1090.8 1795.2 1089 1799 1089C1804.8 1089 1809.8 1093.1 1810.8 1098.8L1829.8 1200.2L1901.6 1166C1917.8 1158.3 1937.1 1162.4 1948.7 1176C1997.9 1233.4 2025 1306.6 2025 1382.2V1419.8C2025 1429.5 2014.8 1435.8 2006.1 1431.5L1942.3 1399.6C1934.8 1395.9 1925.7 1398.5 1921.4 1405.7L1891.6 1455.4C1886.2 1464.3 1873.9 1465.8 1866.6 1458.5L1830 1421.9C1823.2 1415.1 1811.9 1415.8 1806 1423.5L1749.8 1496.6C1743.4 1504.9 1730.8 1504.9 1724.4 1496.6L1668.2 1423.5C1662.3 1415.8 1651 1415.1 1644.2 1421.9L1607.6 1458.5C1600.2 1465.9 1587.9 1464.3 1582.6 1455.4L1552.8 1405.7C1548.5 1398.5 1539.4 1395.9 1531.9 1399.6L1467.9 1431.5C1459.2 1435.8 1449 1429.5 1449 1419.8V1382.2C1449 1306.6 1476.1 1233.4 1525.3 1176C1536.9 1162.4 1556.2 1158.3 1572.4 1166L1644.2 1200.2L1663.2 1098.8C1664.3 1093.1 1669.2 1089 1675 1089C1678.8 1089 1682.4 1090.8 1684.6 1093.8Z" fill="black"/>
<g clip-path="url(#clip3_1_34)">
<path opacity="0.4" d="M0 2071C0 2177 68.1 2263 152 2263C171.3 2263 189.8 2258.5 206.7 2250.2C215 2246.1 224.9 2246.1 233.2 2250.2C250.2 2258.5 268.6 2263 287.9 2263C307.2 2263 325.7 2258.5 342.6 2250.2C350.9 2246.1 360.8 2246.1 369.1 2250.2C386.1 2258.5 404.5 2263 423.8 2263C507.7 2263 575.8 2177 575.8 2071C575.8 1965 507.7 1879 423.8 1879C414.9 1879 406.2 1880 397.8 1881.8C397.2 1881.9 396.6 1882 396 1882.1C408.1 1890.9 419.1 1901.2 428.7 1912.6C434.3 1919.3 425.8 1927.2 418.3 1922.7C380.3 1900 335.7 1887 288 1887C240.3 1887 195.7 1900 157.5 1922.7C150 1927.2 141.5 1919.3 147.1 1912.6C156.7 1901.2 167.7 1890.9 179.8 1882.1C179.2 1882 178.6 1881.9 178 1881.8C169.5 1880 160.8 1879 152 1879C68.1 1879 0 1965 0 2071ZM105.4 2091.4C105.4 2091.2 105.4 2090.9 105.4 2091.4ZM161.9 2030.5C159.1 2025.3 159.4 2019 162.7 2014.1L194.7 1966.1C197.7 1961.6 202.7 1959 208 1959C213.3 1959 218.3 1961.7 221.3 1966.1L253.3 2014.1C256.6 2019 256.9 2025.3 254.1 2030.5C251.3 2035.7 245.9 2039 240 2039H176C170.1 2039 164.7 2035.8 161.9 2030.5ZM321.9 2030.5C319.1 2025.3 319.4 2019 322.7 2014.1L354.7 1966.1C357.7 1961.6 362.7 1959 368 1959C373.3 1959 378.3 1961.7 381.3 1966.1L413.3 2014.1C416.6 2019 416.9 2025.3 414.1 2030.5C411.3 2035.7 405.9 2039 400 2039H336C330.1 2039 324.7 2035.8 321.9 2030.5Z" fill="#FF7104"/>
<path d="M275.5 1761.4L234.6 1854.9C251.5 1849.8 269.4 1847 288 1847C310.5 1847 332.1 1851 352 1858.4V1786.4C352 1779.5 347.9 1773.2 341.5 1770.5L299.3 1752.4C297.1 1751.5 294.8 1751 292.5 1751H291.3C284.4 1751 278.2 1755.1 275.5 1761.4ZM221.3 1966.1C218.3 1961.6 213.3 1959 208 1959C202.7 1959 197.7 1961.7 194.7 1966.1L162.7 2014.1C159.4 2019 159.1 2025.3 161.9 2030.5C164.7 2035.7 170.1 2039 176 2039H240C245.9 2039 251.3 2035.8 254.1 2030.5C256.9 2025.2 256.6 2019 253.3 2014.1L221.3 1966.1ZM381.3 1966.1C378.3 1961.6 373.3 1959 368 1959C362.7 1959 357.7 1961.7 354.7 1966.1L322.7 2014.1C319.4 2019 319.1 2025.3 321.9 2030.5C324.7 2035.7 330.1 2039 336 2039H400C405.9 2039 411.3 2035.8 414.1 2030.5C416.9 2025.2 416.6 2019 413.3 2014.1L381.3 1966.1ZM416 2166.4C452.9 2141.7 465.9 2109.7 470.1 2095C471.5 2090 469.8 2084.8 466.1 2081.2C460.3 2075.4 451 2074.6 443.9 2078.8C420.8 2092.4 365.6 2119 288 2119V2135C288 2143.8 280.8 2151 272 2151H256C247.2 2151 240 2143.8 240 2135V2115.5C187.6 2107.8 150.1 2089.3 132.1 2078.7C125 2074.5 115.7 2075.3 109.9 2081.1C106.2 2084.8 104.5 2089.9 105.9 2094.9C110.1 2109.6 123.1 2141.7 160 2166.3C160.3 2157.7 167.3 2150.9 176 2150.9H192C200.8 2150.9 208 2158.1 208 2166.9V2188.4C229.8 2194.9 256.2 2198.9 288 2198.9C319.8 2198.9 346.2 2194.9 368 2188.4V2166.9C368 2158.1 375.2 2150.9 384 2150.9H400C408.6 2150.9 415.7 2157.8 416 2166.3V2166.4Z" fill="#FF7104"/>
</g>
<g clip-path="url(#clip4_1_34)">
<path opacity="0.4" d="M1321 2044H1417H1545H1577H1641H1673H1801H1897V2076L1769 2140H1449L1321 2076V2044Z" fill="#326F00"/>
<path d="M1417 2044L1545 1756L1761 1628L1865 1716L1833 1820L1801 1756H1737L1705 1820L1801 2044H1673V1964V1948H1657H1561H1545V1964V2044H1417ZM1577 2044V1980H1641V2044H1577Z" fill="#18005A"/>
</g>
<g clip-path="url(#clip5_1_34)">
<path opacity="0.4" d="M1472 290V578L1520 546L1592 610L1664 546L1736 610L1808 546L1856 578V290C1856 184 1770 98 1664 98C1558 98 1472 184 1472 290ZM1632 290C1632 298.487 1628.63 306.626 1622.63 312.627C1616.63 318.629 1608.49 322 1600 322C1591.51 322 1583.37 318.629 1577.37 312.627C1571.37 306.626 1568 298.487 1568 290C1568 281.513 1571.37 273.374 1577.37 267.373C1583.37 261.371 1591.51 258 1600 258C1608.49 258 1616.63 261.371 1622.63 267.373C1628.63 273.374 1632 281.513 1632 290ZM1760 290C1760 298.487 1756.63 306.626 1750.63 312.627C1744.63 318.629 1736.49 322 1728 322C1719.51 322 1711.37 318.629 1705.37 312.627C1699.37 306.626 1696 298.487 1696 290C1696 281.513 1699.37 273.374 1705.37 267.373C1711.37 261.371 1719.51 258 1728 258C1736.49 258 1744.63 261.371 1750.63 267.373C1756.63 273.374 1760 281.513 1760 290Z" fill="white"/>
<path d="M1600 322C1608.49 322 1616.63 318.629 1622.63 312.627C1628.63 306.626 1632 298.487 1632 290C1632 281.513 1628.63 273.374 1622.63 267.373C1616.63 261.371 1608.49 258 1600 258C1591.51 258 1583.37 261.371 1577.37 267.373C1571.37 273.374 1568 281.513 1568 290C1568 298.487 1571.37 306.626 1577.37 312.627C1583.37 318.629 1591.51 322 1600 322ZM1728 322C1736.49 322 1744.63 318.629 1750.63 312.627C1756.63 306.626 1760 298.487 1760 290C1760 281.513 1756.63 273.374 1750.63 267.373C1744.63 261.371 1736.49 258 1728 258C1719.51 258 1711.37 261.371 1705.37 267.373C1699.37 273.374 1696 281.513 1696 290C1696 298.487 1699.37 306.626 1705.37 312.627C1711.37 318.629 1719.51 322 1728 322Z" fill="white"/>
</g>
<defs>
<clipPath id="clip0_1_34">
<rect width="576" height="512" fill="white" transform="translate(745 354)"/>
</clipPath>
<clipPath id="clip1_1_34">
<rect width="576" height="512" fill="white" transform="translate(192 1012)"/>
</clipPath>
<clipPath id="clip2_1_34">
<rect width="384" height="512" fill="white" transform="translate(821 1445)"/>
</clipPath>
<clipPath id="clip3_1_34">
<rect width="576" height="512" fill="white" transform="translate(0 1751)"/>
</clipPath>
<clipPath id="clip4_1_34">
<rect width="576" height="512" fill="white" transform="translate(1321 1628)"/>
</clipPath>
<clipPath id="clip5_1_34">
<rect width="384" height="512" fill="white" transform="translate(1472 98)"/>
</clipPath>
</defs>
</svg>
